# xmcd
#
# Track frame offsets:
# 150
# 16365
# 33953
# 51591
# 76660
# 96635
# 106242
# 118710
# 136695
# 151353
# 167651
# 184961
#
# Disc length: 2672 seconds
#
#
# Revision: 0
# Processed by: cddbd v1.5.2PL0 Copyright (c) Steve Scherf et al.
# Submitted via: FreeRIP 2.96 
#
DISCID=970a6e0c
DTITLE=Greencards - Viridian
DYEAR=2007
DGENRE=Bluegrass
TTITLE0=Waiting On the Night
TTITLE1=Here You Are
TTITLE2=River Of Sand
TTITLE3=Who Knows
TTITLE4=All theWay From Italy
TTITLE5=Su Prabhat
TTITLE6=Shinin' In The Dark
TTITLE7=When I Was In Love With You
TTITLE8=I Don't Want To Lose You
TTITLE9=Lonesome Side Of Town
TTITLE10=Travel On
TTITLE11=Mucky The Duck
EXTD=
EXTT0=
EXTT1=
EXTT2=
EXTT3=
EXTT4=
EXTT5=
EXTT6=
EXTT7=
EXTT8=
EXTT9=
EXTT10=
EXTT11=
PLAYORDER=
